<?xml version="1.0" encoding="utf-8"?>
<!-- Generator: Adobe Illustrator 20.0.0, SVG Export Plug-In . SVG Version: 6.00 Build 0)  -->
<svg version="1.1" id="Layer_1" xmlns="http://www.w3.org/2000/svg" xmlns:xlink="http://www.w3.org/1999/xlink" x="0px" y="0px"
	 viewBox="0 0 1058 348" style="enable-background:new 0 0 1058 348;" xml:space="preserve">
<style type="text/css">
	.st0{fill:none;stroke:#FFFFFF;stroke-linecap:round;stroke-linejoin:round;stroke-miterlimit:10;}
	.st1{stroke:#FFFFFF;stroke-linejoin:round;stroke-miterlimit:10;}
	.st2{font-family:'ArialMT';}
	.st3{font-size:8px;}
	.st4{font-size:10px;}
	.st5{font-size:12px;}
	.st6{fill:#9C2D44;}
	.st7{fill:#BCDA82;}
	.st8{fill:none;stroke:#FFFFFF;stroke-linecap:square;stroke-miterlimit:10;}
	.st9{fill:#262626;}
</style>
<path class="st0" d="M51.6,245V21.8"/>
<path id="m6fb883aaf2" class="st1" d="M51.6,245L51.6,245"/>
<path id="m6fb883aaf2_1_" class="st1" d="M51.6,21.8L51.6,21.8"/>
<text transform="matrix(6.123234e-17 -1 1 6.123234e-17 54.1998 298.373)" class="st2 st3">Pseudomonas</text>
<path class="st0" d="M57.6,245V21.8"/>
<path id="m6fb883aaf2_2_" class="st1" d="M57.6,245L57.6,245"/>
<path id="m6fb883aaf2_3_" class="st1" d="M57.6,21.8L57.6,21.8"/>
<text transform="matrix(6.123234e-17 -1 1 6.123234e-17 60.1606 316.6074)" class="st2 st3">Enterobacteriaceae</text>
<path id="m6fb883aaf2_4_" class="st1" d="M63.5,245L63.5,245"/>
<path id="m6fb883aaf2_5_" class="st1" d="M63.5,21.8L63.5,21.8"/>
<text transform="matrix(6.123234e-17 -1 1 6.123234e-17 66.1215 279.2441)" class="st2 st3">Leclercia</text>
<path id="m6fb883aaf2_6_" class="st1" d="M69.5,245L69.5,245"/>
<path id="m6fb883aaf2_7_" class="st1" d="M99.5,51.8L99.5,51.8"/>
<text transform="matrix(6.123234e-17 -1 1 6.123234e-17 72.0823 293.1445)" class="st2 st3">Enterobacter</text>
<path id="m6fb883aaf2_8_" class="st1" d="M75.5,245L75.5,245"/>
<path id="m6fb883aaf2_9_" class="st1" d="M105.5,51.8L105.5,51.8"/>
<text transform="matrix(6.123234e-17 -1 1 6.123234e-17 78.1041 314.8301)" class="st2 st3">Stenotrophomonas</text>
<path id="m6fb883aaf2_10_" class="st1" d="M81.4,245L81.4,245"/>
<path id="m6fb883aaf2_11_" class="st1" d="M111.4,51.8L111.4,51.8"/>
<text transform="matrix(6.123234e-17 -1 1 6.123234e-17 84.004 281.4707)" class="st2 st3">Klebsiella</text>
<path id="m6fb883aaf2_12_" class="st1" d="M87.4,245L87.4,245"/>
<path id="m6fb883aaf2_13_" class="st1" d="M117.4,51.8L117.4,51.8"/>
<text transform="matrix(6.123234e-17 -1 1 6.123234e-17 89.9648 301.5859)" class="st2 st3">Achromobacter</text>
<path id="m6fb883aaf2_14_" class="st1" d="M93.3,245L93.3,245"/>
<path id="m6fb883aaf2_15_" class="st1" d="M123.4,51.8L123.4,51.8"/>
<text transform="matrix(6.123234e-17 -1 1 6.123234e-17 95.9257 277.0332)" class="st2 st3">Pantoea</text>
<path id="m6fb883aaf2_16_" class="st1" d="M99.3,245L99.3,245"/>
<path id="m6fb883aaf2_17_" class="st1" d="M129.3,51.8L129.3,51.8"/>
<text transform="matrix(6.123234e-17 -1 1 6.123234e-17 101.8865 287.7012)" class="st2 st3">Candidatus</text>
<path id="m6fb883aaf2_18_" class="st1" d="M105.3,245L105.3,245"/>
<path id="m6fb883aaf2_19_" class="st1" d="M135.3,51.8L135.3,51.8"/>
<text transform="matrix(6.123234e-17 -1 1 6.123234e-17 107.8473 299.2598)" class="st2 st3">Proteobacteria</text>
<path id="m6fb883aaf2_20_" class="st1" d="M111.2,245L111.2,245"/>
<path id="m6fb883aaf2_21_" class="st1" d="M141.2,51.8L141.2,51.8"/>
<text transform="matrix(6.123234e-17 -1 1 6.123234e-17 113.8082 289.4707)" class="st2 st3">Thiobacillus</text>
<path id="m6fb883aaf2_22_" class="st1" d="M117.2,245L117.2,245"/>
<path id="m6fb883aaf2_23_" class="st1" d="M147.2,51.8L147.2,51.8"/>
<text transform="matrix(6.123234e-17 -1 1 6.123234e-17 119.769 282.8027)" class="st2 st3">Prevotella</text>
<path id="m6fb883aaf2_24_" class="st1" d="M123.1,245L123.1,245"/>
<path id="m6fb883aaf2_25_" class="st1" d="M123.1,21.8L123.1,21.8"/>
<text transform="matrix(6.123234e-17 -1 1 6.123234e-17 125.7908 326.8223)" class="st2 st3">Gammaproteobacteria</text>
<path id="m6fb883aaf2_26_" class="st1" d="M129.1,245L129.1,245"/>
<path id="m6fb883aaf2_27_" class="st1" d="M129.1,21.8L129.1,21.8"/>
<text transform="matrix(6.123234e-17 -1 1 6.123234e-17 131.6907 284.5801)" class="st2 st3">Idiomarina</text>
<path id="m6fb883aaf2_28_" class="st1" d="M135.1,245L135.1,245"/>
<path id="m6fb883aaf2_29_" class="st1" d="M135.1,21.8L135.1,21.8"/>
<text transform="matrix(6.123234e-17 -1 1 6.123234e-17 137.6515 297.9121)" class="st2 st3">Ochrobactrum</text>
<path id="m6fb883aaf2_30_" class="st1" d="M141,245L141,245"/>
<text transform="matrix(6.123234e-17 -1 1 6.123234e-17 143.6123 297.0293)" class="st2 st3">Thalassospira</text>
<path id="m6fb883aaf2_32_" class="st1" d="M147,245L147,245"/>
<text transform="matrix(6.123234e-17 -1 1 6.123234e-17 149.5731 300.1543)" class="st2 st3">Anaerolineales</text>
<path id="m6fb883aaf2_34_" class="st1" d="M152.9,245L152.9,245"/>
<text transform="matrix(6.123234e-17 -1 1 6.123234e-17 155.5339 288.5801)" class="st2 st3">Escherichia</text>
<path id="m6fb883aaf2_36_" class="st1" d="M158.9,245L158.9,245"/>
<text transform="matrix(6.123234e-17 -1 1 6.123234e-17 161.4362 298.4727)" class="st2 st3">Psychrobacter</text>
<path id="m6fb883aaf2_38_" class="st1" d="M164.9,245L164.9,245"/>
<text transform="matrix(6.123234e-17 -1 1 6.123234e-17 167.4556 274.7949)" class="st2 st3">Bacillus</text>
<path id="m6fb883aaf2_40_" class="st1" d="M170.8,245L170.8,245"/>
<text transform="matrix(6.123234e-17 -1 1 6.123234e-17 173.4774 289.4707)" class="st2 st3">Cupriavidus</text>
<path id="m6fb883aaf2_42_" class="st1" d="M176.8,245L176.8,245"/>
<text transform="matrix(6.123234e-17 -1 1 6.123234e-17 179.3773 298.373)" class="st2 st3">Sutterellaceae</text>
<path id="m6fb883aaf2_44_" class="st1" d="M182.8,245L182.8,245"/>
<text transform="matrix(6.123234e-17 -1 1 6.123234e-17 185.3381 295.7012)" class="st2 st3">Bacteroidales</text>
<path id="m6fb883aaf2_46_" class="st1" d="M188.7,245L188.7,245"/>
<text transform="matrix(6.123234e-17 -1 1 6.123234e-17 191.299 310.8223)" class="st2 st3">Rhodospirillaceae</text>
<path id="m6fb883aaf2_48_" class="st1" d="M194.7,245L194.7,245"/>
<text transform="matrix(6.123234e-17 -1 1 6.123234e-17 197.2598 286.0234)" class="st2 st3">Arcobacter</text>
<path id="m6fb883aaf2_50_" class="st1" d="M200.6,245L200.6,245"/>
<text transform="matrix(6.123234e-17 -1 1 6.123234e-17 203.162 306.377)" class="st2 st3">Rhodocyclaceae</text>
<path id="m6fb883aaf2_52_" class="st1" d="M206.6,245L206.6,245"/>
<text transform="matrix(6.123234e-17 -1 1 6.123234e-17 209.1815 302.8145)" class="st2 st3">Brevundimonas</text>
<path id="m6fb883aaf2_54_" class="st1" d="M212.6,245L212.6,245"/>
<text transform="matrix(6.123234e-17 -1 1 6.123234e-17 215.1423 283.2363)" class="st2 st3">Micavibrio</text>
<path id="m6fb883aaf2_56_" class="st1" d="M218.5,245L218.5,245"/>
<text transform="matrix(6.123234e-17 -1 1 6.123234e-17 221.1641 301.9121)" class="st2 st3">Sulfurospirillum</text>
<path id="m6fb883aaf2_58_" class="st1" d="M224.5,245L224.5,245"/>
<text transform="matrix(6.123234e-17 -1 1 6.123234e-17 227.064 289.4668)" class="st2 st3">Oblitimonas</text>
<path id="m6fb883aaf2_60_" class="st1" d="M230.4,245L230.4,245"/>
<text transform="matrix(6.123234e-17 -1 1 6.123234e-17 233.0248 314.8262)" class="st2 st3">Comamonadaceae</text>
<path id="m6fb883aaf2_62_" class="st1" d="M236.4,245L236.4,245"/>
<text transform="matrix(6.123234e-17 -1 1 6.123234e-17 238.9856 318.3848)" class="st2 st3">Desulfobacteraceae</text>
<path id="m6fb883aaf2_64_" class="st1" d="M242.4,245L242.4,245"/>
<text transform="matrix(6.123234e-17 -1 1 6.123234e-17 244.9464 311.2754)" class="st2 st3">Desulfobulbaceae</text>
<path id="m6fb883aaf2_66_" class="st1" d="M248.3,245L248.3,245"/>
<text transform="matrix(6.123234e-17 -1 1 6.123234e-17 250.8486 313.4863)" class="st2 st3">Methylococcaceae</text>
<path id="m6fb883aaf2_68_" class="st1" d="M254.3,245L254.3,245"/>
<text transform="matrix(6.123234e-17 -1 1 6.123234e-17 256.8681 324.6113)" class="st2 st3">Epsilonproteobacteria</text>
<path id="m6fb883aaf2_70_" class="st1" d="M260.2,245L260.2,245"/>
<text transform="matrix(6.123234e-17 -1 1 6.123234e-17 262.8289 294.0283)" class="st2 st3">Marinobacter</text>
<path id="m6fb883aaf2_72_" class="st1" d="M266.2,245L266.2,245"/>
<text transform="matrix(6.123234e-17 -1 1 6.123234e-17 268.7898 284.6963)" class="st2 st3">Geobacter</text>
<path id="m6fb883aaf2_74_" class="st1" d="M272.2,245L272.2,245"/>
<text transform="matrix(6.123234e-17 -1 1 6.123234e-17 274.7506 287.6895)" class="st2 st3">Sulfurovum</text>
<path id="m6fb883aaf2_76_" class="st1" d="M278.1,245L278.1,245"/>
<text transform="matrix(6.123234e-17 -1 1 6.123234e-17 280.7114 280.1387)" class="st2 st3">Gordonia</text>
<path id="m6fb883aaf2_78_" class="st1" d="M284.1,245L284.1,245"/>
<text transform="matrix(6.123234e-17 -1 1 6.123234e-17 286.6136 299.3721)" class="st2 st3">Enhydrobacter</text>
<path id="m6fb883aaf2_80_" class="st1" d="M290,245L290,245"/>
<text transform="matrix(6.123234e-17 -1 1 6.123234e-17 292.6331 314.834)" class="st2 st3">Rhodobacteraceae</text>
<path id="m6fb883aaf2_82_" class="st1" d="M296,245L296,245"/>
<text transform="matrix(6.123234e-17 -1 1 6.123234e-17 298.5353 315.2559)" class="st2 st3">Flammeovirgaceae</text>
<path id="m6fb883aaf2_84_" class="st1" d="M302,245L302,245"/>
<text transform="matrix(6.123234e-17 -1 1 6.123234e-17 304.5547 287.6934)" class="st2 st3">Halomonas</text>
<path id="m6fb883aaf2_86_" class="st1" d="M307.9,245L307.9,245"/>
<text transform="matrix(6.123234e-17 -1 1 6.123234e-17 310.5156 320.6191)" class="st2 st3">Pseudomonadaceae</text>
<path id="m6fb883aaf2_88_" class="st1" d="M313.9,245L313.9,245"/>
<text transform="matrix(6.123234e-17 -1 1 6.123234e-17 316.4764 304.5801)" class="st2 st3">Arsukibacterium</text>
<path id="m6fb883aaf2_90_" class="st1" d="M319.9,245L319.9,245"/>
<text transform="matrix(6.123234e-17 -1 1 6.123234e-17 322.4373 314.3848)" class="st2 st3">Alteromonadaceae</text>
<path id="m6fb883aaf2_92_" class="st1" d="M325.8,245L325.8,245"/>
<text transform="matrix(6.123234e-17 -1 1 6.123234e-17 328.3981 314.8301)" class="st2 st3">Betaproteobacteria</text>
<path id="m6fb883aaf2_94_" class="st1" d="M331.8,245L331.8,245"/>
<text transform="matrix(6.123234e-17 -1 1 6.123234e-17 334.3589 299.7012)" class="st2 st3">Thiotrichaceae</text>
<path id="m6fb883aaf2_96_" class="st1" d="M337.7,245L337.7,245"/>
<text transform="matrix(6.123234e-17 -1 1 6.123234e-17 340.3197 312.1582)" class="st2 st3">Oxalobacteraceae</text>
<path id="m6fb883aaf2_98_" class="st1" d="M343.7,245L343.7,245"/>
<text transform="matrix(6.123234e-17 -1 1 6.123234e-17 346.2219 292.5762)" class="st2 st3">Alicycliphilus</text>
<path id="m6fb883aaf2_100_" class="st1" d="M349.7,245L349.7,245"/>
<text transform="matrix(6.123234e-17 -1 1 6.123234e-17 352.2414 280.127)" class="st2 st3">Cellvibrio</text>
<path id="m6fb883aaf2_102_" class="st1" d="M355.6,245L355.6,245"/>
<text transform="matrix(6.123234e-17 -1 1 6.123234e-17 358.2022 293.4785)" class="st2 st3">Brucellaceae</text>
<path id="m6fb883aaf2_104_" class="st1" d="M361.6,245L361.6,245"/>
<text transform="matrix(6.123234e-17 -1 1 6.123234e-17 364.1631 270.3535)" class="st2 st3">Hafnia</text>
<path id="m6fb883aaf2_106_" class="st1" d="M367.5,245L367.5,245"/>
<text transform="matrix(6.123234e-17 -1 1 6.123234e-17 370.0653 297.5859)" class="st2 st3">Methylobacter</text>
<path id="m6fb883aaf2_108_" class="st1" d="M373.5,245L373.5,245"/>
<text transform="matrix(6.123234e-17 -1 1 6.123234e-17 376.0847 276.123)" class="st2 st3">Massilia</text>
<path id="m6fb883aaf2_110_" class="st1" d="M379.5,245L379.5,245"/>
<text transform="matrix(6.123234e-17 -1 1 6.123234e-17 382.0455 292.5801)" class="st2 st3">Comamonas</text>
<path id="m6fb883aaf2_112_" class="st1" d="M385.4,245L385.4,245"/>
<text transform="matrix(6.123234e-17 -1 1 6.123234e-17 388.0063 269.9043)" class="st2 st3">Delftia</text>
<path id="m6fb883aaf2_114_" class="st1" d="M391.4,245L391.4,245"/>
<text transform="matrix(6.123234e-17 -1 1 6.123234e-17 394.0281 321.0488)" class="st2 st3">Competibacteraceae</text>
<path id="m6fb883aaf2_116_" class="st1" d="M397.3,245L397.3,245"/>
<text transform="matrix(6.123234e-17 -1 1 6.123234e-17 399.928 303.2559)" class="st2 st3">Dechloromonas</text>
<path id="m6fb883aaf2_118_" class="st1" d="M403.3,245L403.3,245"/>
<text transform="matrix(6.123234e-17 -1 1 6.123234e-17 405.8889 292.1504)" class="st2 st3">Jonesiaceae</text>
<path id="m6fb883aaf2_120_" class="st1" d="M409.3,245L409.3,245"/>
<text transform="matrix(6.123234e-17 -1 1 6.123234e-17 411.8497 274.3535)" class="st2 st3">Kocuria</text>
<path id="m6fb883aaf2_122_" class="st1" d="M415.2,245L415.2,245"/>
<text transform="matrix(6.123234e-17 -1 1 6.123234e-17 417.8105 305.9043)" class="st2 st3">Marinimicrobium</text>
<path id="m6fb883aaf2_124_" class="st1" d="M421.2,245L421.2,245"/>
<text transform="matrix(6.123234e-17 -1 1 6.123234e-17 423.7714 300.5801)" class="st2 st3">Arsenicicoccus</text>
<path id="m6fb883aaf2_126_" class="st1" d="M427.1,245L427.1,245"/>
<text transform="matrix(6.123234e-17 -1 1 6.123234e-17 429.7322 296.584)" class="st2 st3">Neorhizobium</text>
<path id="m6fb883aaf2_128_" class="st1" d="M433.1,245L433.1,245"/>
<text transform="matrix(6.123234e-17 -1 1 6.123234e-17 435.693 277.9043)" class="st2 st3">Thiothrix</text>
<path id="m6fb883aaf2_130_" class="st1" d="M439.1,245L439.1,245"/>
<text transform="matrix(6.123234e-17 -1 1 6.123234e-17 441.6538 298.8262)" class="st2 st3">Rhodobiaceae</text>
<path id="m6fb883aaf2_132_" class="st1" d="M445,245L445,245"/>
<text transform="matrix(6.123234e-17 -1 1 6.123234e-17 447.5561 316.6113)" class="st2 st3">Hyphomonadaceae</text>
<path id="m6fb883aaf2_134_" class="st1" d="M451,245L451,245"/>
<text transform="matrix(6.123234e-17 -1 1 6.123234e-17 453.5755 298.8066)" class="st2 st3">Nitrospiraceae</text>
<path id="m6fb883aaf2_136_" class="st1" d="M457,245L457,245"/>
<text transform="matrix(6.123234e-17 -1 1 6.123234e-17 459.5363 318.834)" class="st2 st3">Alphaproteobacteria</text>
<path id="m6fb883aaf2_138_" class="st1" d="M462.9,245L462.9,245"/>
<text transform="matrix(6.123234e-17 -1 1 6.123234e-17 465.4972 288.584)" class="st2 st3">Rhizobiales</text>
<path id="m6fb883aaf2_140_" class="st1" d="M468.9,245L468.9,245"/>
<text transform="matrix(6.123234e-17 -1 1 6.123234e-17 471.458 290.0205)" class="st2 st3">Ramlibacter</text>
<path id="m6fb883aaf2_142_" class="st1" d="M474.8,245L474.8,245"/>
<text transform="matrix(6.123234e-17 -1 1 6.123234e-17 477.4188 281.0215)" class="st2 st3">Bacillales</text>
<path id="m6fb883aaf2_144_" class="st1" d="M480.8,245L480.8,245"/>
<text transform="matrix(6.123234e-17 -1 1 6.123234e-17 483.3797 305.4785)" class="st2 st3">Flavobacteriales</text>
<path id="m6fb883aaf2_146_" class="st1" d="M486.8,245L486.8,245"/>
<text transform="matrix(6.123234e-17 -1 1 6.123234e-17 489.3405 291.8047)" class="st2 st3">Helicobacter</text>
<path id="m6fb883aaf2_148_" class="st1" d="M492.7,245L492.7,245"/>
<text transform="matrix(6.123234e-17 -1 1 6.123234e-17 495.3013 299.252)" class="st2 st3">Cellvibrionales</text>
<path id="m6fb883aaf2_150_" class="st1" d="M498.7,245L498.7,245"/>
<text transform="matrix(6.123234e-17 -1 1 6.123234e-17 501.2621 286.4658)" class="st2 st3">Citrobacter</text>
<path id="m6fb883aaf2_152_" class="st1" d="M504.6,245L504.6,245"/>
<text transform="matrix(6.123234e-17 -1 1 6.123234e-17 507.223 277.0254)" class="st2 st3">Thauera</text>
<path id="m6fb883aaf2_154_" class="st1" d="M510.6,245L510.6,245"/>
<text transform="matrix(6.123234e-17 -1 1 6.123234e-17 513.1252 317.9316)" class="st2 st3">Hyphomicrobiaceae</text>
<path id="m6fb883aaf2_156_" class="st1" d="M516.6,245L516.6,245"/>
<text transform="matrix(6.123234e-17 -1 1 6.123234e-17 519.0861 314.8262)" class="st2 st3">Phyllobacteriaceae</text>
<path id="m6fb883aaf2_158_" class="st1" d="M522.5,245L522.5,245"/>
<text transform="matrix(6.123234e-17 -1 1 6.123234e-17 525.1055 287.2441)" class="st2 st3">Mitsuokella</text>
<path id="m6fb883aaf2_160_" class="st1" d="M528.5,245L528.5,245"/>
<text transform="matrix(6.123234e-17 -1 1 6.123234e-17 531.0663 298.9258)" class="st2 st3">Neptuniibacter</text>
<path id="m6fb883aaf2_162_" class="st1" d="M534.4,245L534.4,245"/>
<text transform="matrix(6.123234e-17 -1 1 6.123234e-17 537.0295 311.7246)" class="st2 st3">Chitinophagaceae</text>
<path id="m6fb883aaf2_164_" class="st1" d="M540.4,245L540.4,245"/>
<text transform="matrix(6.123234e-17 -1 1 6.123234e-17 542.9294 299.252)" class="st2 st3">Agrobacterium</text>
<path id="m6fb883aaf2_166_" class="st1" d="M546.4,245L546.4,245"/>
<text transform="matrix(6.123234e-17 -1 1 6.123234e-17 548.9488 294.3691)" class="st2 st3">Paenibacillus</text>
<path id="m6fb883aaf2_168_" class="st1" d="M552.3,245L552.3,245"/>
<text transform="matrix(6.123234e-17 -1 1 6.123234e-17 554.9096 294.3652)" class="st2 st3">Polaromonas</text>
<path id="m6fb883aaf2_170_" class="st1" d="M558.3,245L558.3,245"/>
<text transform="matrix(6.123234e-17 -1 1 6.123234e-17 560.8119 303.6973)" class="st2 st3">Planctomycetes</text>
<path id="m6fb883aaf2_172_" class="st1" d="M564.2,245L564.2,245"/>
<text transform="matrix(6.123234e-17 -1 1 6.123234e-17 566.8313 280.5801)" class="st2 st3">Ralstonia</text>
<path id="m6fb883aaf2_174_" class="st1" d="M570.2,245L570.2,245"/>
<text transform="matrix(6.123234e-17 -1 1 6.123234e-17 572.7921 301.9238)" class="st2 st3">Porticoccaceae</text>
<path id="m6fb883aaf2_176_" class="st1" d="M576.2,245L576.2,245"/>
<text transform="matrix(6.123234e-17 -1 1 6.123234e-17 578.7529 288.5762)" class="st2 st3">Porticoccus</text>
<path id="m6fb883aaf2_178_" class="st1" d="M582.1,245L582.1,245"/>
<text transform="matrix(6.123234e-17 -1 1 6.123234e-17 584.7138 311.7051)" class="st2 st3">Propionibacterium</text>
<path id="m6fb883aaf2_180_" class="st1" d="M588.1,245L588.1,245"/>
<text transform="matrix(6.123234e-17 -1 1 6.123234e-17 590.6746 297.9199)" class="st2 st3">Proteiniphilum</text>
<path id="m6fb883aaf2_182_" class="st1" d="M594.1,245L594.1,245"/>
<text transform="matrix(6.123234e-17 -1 1 6.123234e-17 596.5768 305.4746)" class="st2 st3">Actinomycetales</text>
<path id="m6fb883aaf2_184_" class="st1" d="M600,245L600,245"/>
<text transform="matrix(6.123234e-17 -1 1 6.123234e-17 602.5963 289.0293)" class="st2 st3">Providencia</text>
<path id="m6fb883aaf2_186_" class="st1" d="M606,245L606,245"/>
<text transform="matrix(6.123234e-17 -1 1 6.123234e-17 608.5571 305.0293)" class="st2 st3">Micrococcaceae</text>
<path id="m6fb883aaf2_188_" class="st1" d="M611.9,245L611.9,245"/>
<text transform="matrix(6.123234e-17 -1 1 6.123234e-17 614.5179 291.3633)" class="st2 st3">Cronobacter</text>
<path id="m6fb883aaf2_190_" class="st1" d="M617.9,245L617.9,245"/>
<text transform="matrix(6.123234e-17 -1 1 6.123234e-17 620.4811 301.1416)" class="st2 st3">Campylobacter</text>
<path id="m6fb883aaf2_192_" class="st1" d="M623.9,245L623.9,245"/>
<text transform="matrix(6.123234e-17 -1 1 6.123234e-17 626.4396 312.1621)" class="st2 st3">Caulobacteraceae</text>
<path id="m6fb883aaf2_194_" class="st1" d="M629.8,245L629.8,245"/>
<text transform="matrix(6.123234e-17 -1 1 6.123234e-17 632.4005 312.5996)" class="st2 st3">Flavobacteriaceae</text>
<path id="m6fb883aaf2_196_" class="st1" d="M635.8,245L635.8,245"/>
<text transform="matrix(6.123234e-17 -1 1 6.123234e-17 638.3613 296.5762)" class="st2 st3">Acidimicrobiia</text>
<path id="m6fb883aaf2_198_" class="st1" d="M641.7,245L641.7,245"/>
<text transform="matrix(6.123234e-17 -1 1 6.123234e-17 644.2635 297.0371)" class="st2 st3">Ignavibacteria</text>
<path id="m6fb883aaf2_200_" class="st1" d="M647.7,245L647.7,245"/>
<text transform="matrix(6.123234e-17 -1 1 6.123234e-17 650.2853 318.8262)" class="st2 st3">Corynebacteriaceae</text>
<path id="m6fb883aaf2_202_" class="st1" d="M653.7,245L653.7,245"/>
<text transform="matrix(6.123234e-17 -1 1 6.123234e-17 656.2438 301.0371)" class="st2 st3">Aquabacterium</text>
<path id="m6fb883aaf2_204_" class="st1" d="M659.6,245L659.6,245"/>
<text transform="matrix(6.123234e-17 -1 1 6.123234e-17 662.2046 288.25)" class="st2 st3">Arenibacter</text>
<path id="m6fb883aaf2_206_" class="st1" d="M665.6,245L665.6,245"/>
<text transform="matrix(6.123234e-17 -1 1 6.123234e-17 668.1678 294.8145)" class="st2 st3">Sphingopyxis</text>
<path id="m6fb883aaf2_208_" class="st1" d="M671.5,245L671.5,245"/>
<text transform="matrix(6.123234e-17 -1 1 6.123234e-17 674.1263 291.6934)" class="st2 st3">Salinicoccus</text>
<path id="m6fb883aaf2_210_" class="st1" d="M677.5,245L677.5,245"/>
<text transform="matrix(6.123234e-17 -1 1 6.123234e-17 680.0871 278.791)" class="st2 st3">Thermus</text>
<path id="m6fb883aaf2_212_" class="st1" d="M683.5,245L683.5,245"/>
<text transform="matrix(6.123234e-17 -1 1 6.123234e-17 686.0479 305.0293)" class="st2 st3">Verrucomicrobia</text>
<path id="m6fb883aaf2_214_" class="st1" d="M689.4,245L689.4,245"/>
<text transform="matrix(6.123234e-17 -1 1 6.123234e-17 692.0087 275.2402)" class="st2 st3">Serratia</text>
<path id="m6fb883aaf2_216_" class="st1" d="M695.4,245L695.4,245"/>
<text transform="matrix(6.123234e-17 -1 1 6.123234e-17 697.9696 284.1387)" class="st2 st3">Thiocapsa</text>
<path id="m6fb883aaf2_218_" class="st1" d="M701.3,245L701.3,245"/>
<text transform="matrix(6.123234e-17 -1 1 6.123234e-17 703.9304 286.4648)" class="st2 st3">Siccibacter</text>
<path id="m6fb883aaf2_220_" class="st1" d="M707.3,245L707.3,245"/>
<text transform="matrix(6.123234e-17 -1 1 6.123234e-17 709.8912 318.3965)" class="st2 st3">Selenomonadaceae</text>
<path id="m6fb883aaf2_222_" class="st1" d="M713.3,245L713.3,245"/>
<text transform="matrix(6.123234e-17 -1 1 6.123234e-17 715.8521 292.1348)" class="st2 st3">Pusillimonas</text>
<path id="m6fb883aaf2_224_" class="st1" d="M719.2,245L719.2,245"/>
<text transform="matrix(6.123234e-17 -1 1 6.123234e-17 721.8129 267.5371)" class="st2 st3">Vibrio</text>
<path id="m6fb883aaf2_226_" class="st1" d="M725.2,245L725.2,245"/>
<text transform="matrix(6.123234e-17 -1 1 6.123234e-17 727.8347 321.0449)" class="st2 st3">Saccharospirillaceae</text>
<path id="m6fb883aaf2_228_" class="st1" d="M731.1,245L731.1,245"/>
<text transform="matrix(6.123234e-17 -1 1 6.123234e-17 733.7346 295.7051)" class="st2 st3">Rhizobiaceae</text>
<path id="m6fb883aaf2_230_" class="st1" d="M737.1,245L737.1,245"/>
<text transform="matrix(6.123234e-17 -1 1 6.123234e-17 739.6954 303.7051)" class="st2 st3">Sulfuricellaceae</text>
<path id="m6fb883aaf2_232_" class="st1" d="M743.1,245L743.1,245"/>
<text transform="matrix(6.123234e-17 -1 1 6.123234e-17 745.6562 307.7129)" class="st2 st3">Rhodobacterales</text>
<path id="m6fb883aaf2_234_" class="st1" d="M749,245L749,245"/>
<text transform="matrix(6.123234e-17 -1 1 6.123234e-17 751.6171 288.5879)" class="st2 st3">Rhodoferax</text>
<path id="m6fb883aaf2_236_" class="st1" d="M755,245L755,245"/>
<text transform="matrix(6.123234e-17 -1 1 6.123234e-17 757.5802 301.0449)" class="st2 st3">Syntrophaceae</text>
<path id="m6fb883aaf2_238_" class="st1" d="M761,245L761,245"/>
<text transform="matrix(6.123234e-17 -1 1 6.123234e-17 763.5411 316.6074)" class="st2 st3">Staphylococcaceae</text>
<path id="m6fb883aaf2_240_" class="st1" d="M766.9,245L766.9,245"/>
<text transform="matrix(6.123234e-17 -1 1 6.123234e-17 769.4996 281.4668)" class="st2 st3">Tatumella</text>
<path id="m6fb883aaf2_242_" class="st1" d="M772.9,245L772.9,245"/>
<text transform="matrix(6.123234e-17 -1 1 6.123234e-17 775.4604 323.7324)" class="st2 st3">Rhodanobacteraceae</text>
<path id="m6fb883aaf2_244_" class="st1" d="M778.8,245L778.8,245"/>
<text transform="matrix(6.123234e-17 -1 1 6.123234e-17 781.4212 295.7012)" class="st2 st3">Rhodococcus</text>
<path id="m6fb883aaf2_246_" class="st1" d="M784.8,245L784.8,245"/>
<text transform="matrix(6.123234e-17 -1 1 6.123234e-17 787.382 304.1465)" class="st2 st3">Thermoleophilia</text>
<path id="m6fb883aaf2_248_" class="st1" d="M790.8,245L790.8,245"/>
<text transform="matrix(6.123234e-17 -1 1 6.123234e-17 793.3429 296.1504)" class="st2 st3">Selenomonas</text>
<path id="m6fb883aaf2_250_" class="st1" d="M796.7,245L796.7,245"/>
<text transform="matrix(6.123234e-17 -1 1 6.123234e-17 799.3646 291.7012)" class="st2 st3">Spirochaetia</text>
<path id="m6fb883aaf2_252_" class="st1" d="M802.7,245L802.7,245"/>
<text transform="matrix(6.123234e-17 -1 1 6.123234e-17 805.2645 293.4785)" class="st2 st3">Lactobacillus</text>
<path id="m6fb883aaf2_254_" class="st1" d="M808.6,245L808.6,245"/>
<text transform="matrix(6.123234e-17 -1 1 6.123234e-17 811.2253 318.3848)" class="st2 st3">Pseudoalteromonas</text>
<path id="m6fb883aaf2_256_" class="st1" d="M814.6,245L814.6,245"/>
<text transform="matrix(6.123234e-17 -1 1 6.123234e-17 817.1862 273.459)" class="st2 st3">Erwinia</text>
<path id="m6fb883aaf2_258_" class="st1" d="M820.6,245L820.6,245"/>
<text transform="matrix(6.123234e-17 -1 1 6.123234e-17 823.147 295.7012)" class="st2 st3">Desulfatitalea</text>
<path id="m6fb883aaf2_260_" class="st1" d="M826.5,245L826.5,245"/>
<text transform="matrix(6.123234e-17 -1 1 6.123234e-17 829.1078 317.0488)" class="st2 st3">Deltaproteobacteria</text>
<path id="m6fb883aaf2_262_" class="st1" d="M832.5,245L832.5,245"/>
<text transform="matrix(6.123234e-17 -1 1 6.123234e-17 835.0687 305.9316)" class="st2 st3">Dehalococcoidia</text>
<path id="m6fb883aaf2_264_" class="st1" d="M838.4,245L838.4,245"/>
<text transform="matrix(6.123234e-17 -1 1 6.123234e-17 841.0319 298.8145)" class="st2 st3">Cyanobacteria</text>
<path id="m6fb883aaf2_266_" class="st1" d="M844.4,245L844.4,245"/>
<text transform="matrix(6.123234e-17 -1 1 6.123234e-17 846.9927 302.3691)" class="st2 st3">Chrysiogenales</text>
<path id="m6fb883aaf2_268_" class="st1" d="M850.4,245L850.4,245"/>
<text transform="matrix(6.123234e-17 -1 1 6.123234e-17 852.9512 285.0215)" class="st2 st3">Chloroflexi</text>
<path id="m6fb883aaf2_270_" class="st1" d="M856.3,245L856.3,245"/>
<text transform="matrix(6.123234e-17 -1 1 6.123234e-17 858.912 320.5957)" class="st2 st3">Chloracidobacterium</text>
<path id="m6fb883aaf2_272_" class="st1" d="M862.3,245L862.3,245"/>
<text transform="matrix(6.123234e-17 -1 1 6.123234e-17 864.8729 306.373)" class="st2 st3">Cellvibrionaceae</text>
<path id="m6fb883aaf2_274_" class="st1" d="M868.2,245L868.2,245"/>
<text transform="matrix(6.123234e-17 -1 1 6.123234e-17 870.8337 295.6973)" class="st2 st3">Cellulomonas</text>
<path id="m6fb883aaf2_276_" class="st1" d="M874.2,245L874.2,245"/>
<text transform="matrix(6.123234e-17 -1 1 6.123234e-17 876.7945 294.8105)" class="st2 st3">Castellaniella</text>
<path id="m6fb883aaf2_278_" class="st1" d="M880.2,245L880.2,245"/>
<text transform="matrix(6.123234e-17 -1 1 6.123234e-17 882.7553 288.5879)" class="st2 st3">Buttiauxella</text>
<path id="m6fb883aaf2_280_" class="st1" d="M886.1,245L886.1,245"/>
<text transform="matrix(6.123234e-17 -1 1 6.123234e-17 888.7162 317.9355)" class="st2 st3">Bacteriovoracaceae</text>
<path id="m6fb883aaf2_282_" class="st1" d="M892.1,245L892.1,245"/>
<text transform="matrix(6.123234e-17 -1 1 6.123234e-17 894.677 288.1426)" class="st2 st3">Bacillaceae</text>
<path id="m6fb883aaf2_284_" class="st1" d="M898.1,245L898.1,245"/>
<text transform="matrix(6.123234e-17 -1 1 6.123234e-17 900.6378 292.1387)" class="st2 st3">Alteromonas</text>
<path id="m6fb883aaf2_286_" class="st1" d="M904,245L904,245"/>
<text transform="matrix(6.123234e-17 -1 1 6.123234e-17 906.5986 301.0215)" class="st2 st3">Aeromicrobium</text>
<path id="m6fb883aaf2_288_" class="st1" d="M910,245L910,245"/>
<text transform="matrix(6.123234e-17 -1 1 6.123234e-17 912.5595 282.3652)" class="st2 st3">Advenella</text>
<path id="m6fb883aaf2_290_" class="st1" d="M915.9,245L915.9,245"/>
<text transform="matrix(6.123234e-17 -1 1 6.123234e-17 918.5203 286.8027)" class="st2 st3">Acidovorax</text>
<path id="m6fb883aaf2_292_" class="st1" d="M921.9,245L921.9,245"/>
<text transform="matrix(6.123234e-17 -1 1 6.123234e-17 924.4811 271.6816)" class="st2 st3">Dietzia</text>
<path id="m6fb883aaf2_294_" class="st1" d="M927.9,245L927.9,245"/>
<text transform="matrix(6.123234e-17 -1 1 6.123234e-17 930.442 284.1191)" class="st2 st3">Firmicutes</text>
<path id="m6fb883aaf2_296_" class="st1" d="M933.8,245L933.8,245"/>
<text transform="matrix(6.123234e-17 -1 1 6.123234e-17 936.4028 274.7988)" class="st2 st3">Proteus</text>
<path id="m6fb883aaf2_298_" class="st1" d="M939.8,245L939.8,245"/>
<text transform="matrix(6.123234e-17 -1 1 6.123234e-17 942.3636 318.8145)" class="st2 st3">Gemmatimonadales</text>
<path id="m6fb883aaf2_300_" class="st1" d="M945.7,245L945.7,245"/>
<text transform="matrix(6.123234e-17 -1 1 6.123234e-17 948.2659 325.9473)" class="st2 st3">Porphyromonadaceae</text>
<path id="m6fb883aaf2_302_" class="st1" d="M951.7,245L951.7,245"/>
<text transform="matrix(6.123234e-17 -1 1 6.123234e-17 954.2853 291.8047)" class="st2 st3">Pluralibacter</text>
<path id="m6fb883aaf2_304_" class="st1" d="M957.7,245L957.7,245"/>
<text transform="matrix(6.123234e-17 -1 1 6.123234e-17 960.2462 309.041)" class="st2 st3">Parvularculaceae</text>
<path id="m6fb883aaf2_306_" class="st1" d="M963.6,245L963.6,245"/>
<text transform="matrix(6.123234e-17 -1 1 6.123234e-17 966.207 289.0254)" class="st2 st3">Paracoccus</text>
<path id="m6fb883aaf2_308_" class="st1" d="M969.6,245L969.6,245"/>
<text transform="matrix(6.123234e-17 -1 1 6.123234e-17 972.1092 311.2676)" class="st2 st3">Novosphingobium</text>
<path id="m6fb883aaf2_310_" class="st1" d="M975.5,245L975.5,245"/>
<text transform="matrix(6.123234e-17 -1 1 6.123234e-17 978.1286 307.2676)" class="st2 st3">Nocardioidaceae</text>
<path id="m6fb883aaf2_312_" class="st1" d="M981.5,245L981.5,245"/>
<text transform="matrix(6.123234e-17 -1 1 6.123234e-17 984.0895 312.5918)" class="st2 st3">Microbacteriaceae</text>
<path id="m6fb883aaf2_314_" class="st1" d="M987.5,245L987.5,245"/>
<text transform="matrix(6.123234e-17 -1 1 6.123234e-17 989.9917 309.4902)" class="st2 st3">Methylophilaceae</text>
<path id="m6fb883aaf2_316_" class="st1" d="M993.4,245L993.4,245"/>
<text transform="matrix(6.123234e-17 -1 1 6.123234e-17 996.0111 281.9082)" class="st2 st3">Martelella</text>
<path id="m6fb883aaf2_318_" class="st1" d="M999.4,245L999.4,245"/>
<text transform="matrix(6.123234e-17 -1 1 6.123234e-17 1001.9719 297.5713)" class="st2 st3">Maritimibacter</text>
<path id="m6fb883aaf2_320_" class="st1" d="M1005.3,245L1005.3,245"/>
<text transform="matrix(6.123234e-17 -1 1 6.123234e-17 1007.8742 284.1426)" class="st2 st3">Leisingera</text>
<path id="m6fb883aaf2_322_" class="st1" d="M1011.3,245L1011.3,245"/>
<text transform="matrix(6.123234e-17 -1 1 6.123234e-17 1013.8936 282.3652)" class="st2 st3">Labrenzia</text>
<path id="m6fb883aaf2_324_" class="st1" d="M1017.3,245L1017.3,245"/>
<text transform="matrix(6.123234e-17 -1 1 6.123234e-17 1019.8544 291.6934)" class="st2 st3">Kordiimonas</text>
<path id="m6fb883aaf2_326_" class="st1" d="M1023.2,245L1023.2,245"/>
<text transform="matrix(6.123234e-17 -1 1 6.123234e-17 1025.8153 313.9395)" class="st2 st3">Kordiimonadaceae</text>
<path id="m6fb883aaf2_328_" class="st1" d="M1029.2,245L1029.2,245"/>
<text transform="matrix(6.123234e-17 -1 1 6.123234e-17 1031.7761 284.25)" class="st2 st3">Janibacter</text>
<path id="m6fb883aaf2_330_" class="st1" d="M1035.2,245L1035.2,245"/>
<text transform="matrix(6.123234e-17 -1 1 6.123234e-17 1037.6783 296.1543)" class="st2 st3">Holophagales</text>
<path id="m6fb883aaf2_332_" class="st1" d="M1041.1,245L1041.1,245"/>
<text transform="matrix(6.123234e-17 -1 1 6.123234e-17 1043.6978 287.2559)" class="st2 st3">Halieaceae</text>
<path id="m6fb883aaf2_334_" class="st1" d="M1047.1,245L1047.1,245"/>
<text transform="matrix(6.123234e-17 -1 1 6.123234e-17 1049.6586 282.3535)" class="st2 st3">bacterium</text>
<path class="st0" d="M47.1,245h1004.4"/>
<path id="m6fb883aaf2_336_" class="st1" d="M47.1,245L47.1,245"/>
<path id="m6fb883aaf2_337_" class="st1" d="M1051.5,245L1051.5,245"/>
<text transform="matrix(1 0 0 1 34.5825 247.5641)" class="st2 st4">0</text>
<path id="m6fb883aaf2_338_" class="st1" d="M47.1,213.1L47.1,213.1"/>
<text transform="matrix(1 0 0 1 29.021 215.6784)" class="st2 st4">50</text>
<path id="m6fb883aaf2_340_" class="st1" d="M47.1,181.2L47.1,181.2"/>
<text transform="matrix(1 0 0 1 23.4595 183.7927)" class="st2 st4">100</text>
<path id="m6fb883aaf2_342_" class="st1" d="M47.1,149.3L47.1,149.3"/>
<text transform="matrix(1 0 0 1 23.4595 151.9069)" class="st2 st4">150</text>
<path id="m6fb883aaf2_344_" class="st1" d="M47.1,117.4L47.1,117.4"/>
<text transform="matrix(1 0 0 1 23.4595 120.0212)" class="st2 st4">200</text>
<path id="m6fb883aaf2_346_" class="st1" d="M47.1,85.6L47.1,85.6"/>
<text transform="matrix(1 0 0 1 23.4595 88.1356)" class="st2 st4">250</text>
<path id="m6fb883aaf2_348_" class="st1" d="M47.1,53.7L47.1,53.7"/>
<text transform="matrix(1 0 0 1 23.4595 56.2498)" class="st2 st4">300</text>
<path id="m6fb883aaf2_350_" class="st1" d="M47.1,21.8L47.1,21.8"/>
<text transform="matrix(1 0 0 1 23.4595 24.3641)" class="st2 st4">350</text>
<text transform="matrix(1 0 0 1 53.1014 25.0666)" class="st2 st5"># UBA genomes</text>
<path class="st6" d="M48.6,245h6V132.7h-6V245z"/>
<path class="st6" d="M54.6,245h6v-14.7h-6V245z"/>
<path class="st6" d="M60.6,245h6v-1.3h-6V245z"/>
<path class="st6" d="M66.5,245h6l0,0H66.5z"/>
<path class="st6" d="M72.5,245h6l0,0H72.5z"/>
<path class="st6" d="M78.4,245h6l0,0H78.4z"/>
<path class="st6" d="M84.4,245h6v-5.1h-6V245z"/>
<path class="st6" d="M90.4,245h6v-1.3h-6V245z"/>
<path class="st6" d="M96.3,245h6v-3.8h-6V245z"/>
<path class="st6" d="M102.3,245h6v-2.6h-6V245z"/>
<path class="st6" d="M108.2,245h6v-3.2h-6V245z"/>
<path class="st6" d="M114.2,245h6l0,0H114.2z"/>
<path class="st6" d="M120.2,245h6v-3.8h-6V245z"/>
<path class="st6" d="M126.1,245h6l0,0H126.1z"/>
<path class="st6" d="M132.1,245h6l0,0H132.1z"/>
<path class="st6" d="M138,245h6v-2.6h-6V245z"/>
<path class="st6" d="M144,245h6l0,0H144z"/>
<path class="st6" d="M150,245h6v-2.6h-6V245z"/>
<path class="st6" d="M155.9,245h6l0,0H155.9z"/>
<path class="st6" d="M161.9,245h6l0,0H161.9z"/>
<path class="st6" d="M167.9,245h6v-2.6h-6V245z"/>
<path class="st6" d="M173.8,245h6v-1.9h-6V245z"/>
<path class="st6" d="M179.8,245h6v-0.6h-6V245z"/>
<path class="st6" d="M185.7,245h6v-4.5h-6V245z"/>
<path class="st6" d="M191.7,245h6v-4.5h-6V245z"/>
<path class="st6" d="M197.7,245h6v-3.2h-6V245z"/>
<path class="st6" d="M203.6,245h6l0,0H203.6z"/>
<path class="st6" d="M209.6,245h6l0,0H209.6z"/>
<path class="st6" d="M215.5,245h6v-3.8h-6V245z"/>
<path class="st6" d="M221.5,245h6l0,0H221.5z"/>
<path class="st6" d="M227.5,245h6l0,0H227.5z"/>
<path class="st6" d="M233.4,245h6v-1.9h-6V245z"/>
<path class="st6" d="M239.4,245h6v-3.8h-6V245z"/>
<path class="st6" d="M245.3,245h6l0,0H245.3z"/>
<path class="st6" d="M251.3,245h6v-3.8h-6V245z"/>
<path class="st6" d="M257.3,245h6l0,0H257.3z"/>
<path class="st6" d="M263.2,245h6v-2.6h-6V245z"/>
<path class="st6" d="M269.2,245h6v-3.8h-6V245z"/>
<path class="st6" d="M275.1,245h6l0,0H275.1z"/>
<path class="st6" d="M281.1,245h6l0,0H281.1z"/>
<path class="st6" d="M287.1,245h6v-1.3h-6V245z"/>
<path class="st6" d="M293,245h6l0,0H293z"/>
<path class="st6" d="M299,245h6l0,0H299z"/>
<path class="st6" d="M305,245h6l0,0H305z"/>
<path class="st6" d="M310.9,245h6l0,0H310.9z"/>
<path class="st6" d="M316.9,245h6l0,0H316.9z"/>
<path class="st6" d="M322.8,245h6v-1.3h-6V245z"/>
<path class="st6" d="M328.8,245h6v-1.9h-6V245z"/>
<path class="st6" d="M334.8,245h6l0,0H334.8z"/>
<path class="st6" d="M340.7,245h6v-0.6h-6V245z"/>
<path class="st6" d="M346.7,245h6v-1.3h-6V245z"/>
<path class="st6" d="M352.6,245h6l0,0H352.6z"/>
<path class="st6" d="M358.6,245h6v-1.3h-6V245z"/>
<path class="st6" d="M364.6,245h6l0,0H364.6z"/>
<path class="st6" d="M370.5,245h6l0,0H370.5z"/>
<path class="st6" d="M376.5,245h6v-2.6h-6V245z"/>
<path class="st6" d="M382.4,245h6l0,0H382.4z"/>
<path class="st6" d="M388.4,245h6l0,0H388.4z"/>
<path class="st6" d="M394.4,245h6v-0.6h-6V245z"/>
<path class="st6" d="M400.3,245h6l0,0H400.3z"/>
<path class="st6" d="M406.3,245h6l0,0H406.3z"/>
<path class="st6" d="M412.2,245h6v-0.6h-6V245z"/>
<path class="st6" d="M418.2,245h6l0,0H418.2z"/>
<path class="st6" d="M424.2,245h6v-1.9h-6V245z"/>
<path class="st6" d="M430.1,245h6l0,0H430.1z"/>
<path class="st6" d="M436.1,245h6v-0.6h-6V245z"/>
<path class="st6" d="M442,245h6l0,0H442z"/>
<path class="st6" d="M448,245h6v-1.9h-6V245z"/>
<path class="st6" d="M454,245h6l0,0H454z"/>
<path class="st6" d="M459.9,245h6v-1.9h-6V245z"/>
<path class="st6" d="M465.9,245h6l0,0H465.9z"/>
<path class="st6" d="M471.9,245h6l0,0H471.9z"/>
<path class="st6" d="M477.8,245h6l0,0H477.8z"/>
<path class="st6" d="M483.8,245h6v-1.9h-6V245z"/>
<path class="st6" d="M489.7,245h6l0,0H489.7z"/>
<path class="st6" d="M495.7,245h6v-1.3h-6V245z"/>
<path class="st6" d="M501.7,245h6v-1.3h-6V245z"/>
<path class="st6" d="M507.6,245h6v-0.6h-6V245z"/>
<path class="st6" d="M513.6,245h6v-0.6h-6V245z"/>
<path class="st6" d="M519.5,245h6l0,0H519.5z"/>
<path class="st6" d="M525.5,245h6v-1.3h-6V245z"/>
<path class="st6" d="M531.5,245h6l0,0H531.5z"/>
<path class="st6" d="M537.4,245h6v-1.3h-6V245z"/>
<path class="st6" d="M543.4,245h6l0,0H543.4z"/>
<path class="st6" d="M549.3,245h6l0,0H549.3z"/>
<path class="st6" d="M555.3,245h6l0,0H555.3z"/>
<path class="st6" d="M561.3,245h6v-0.6h-6V245z"/>
<path class="st6" d="M567.2,245h6l0,0H567.2z"/>
<path class="st6" d="M573.2,245h6l0,0H573.2z"/>
<path class="st6" d="M579.1,245h6l0,0H579.1z"/>
<path class="st6" d="M585.1,245h6l0,0H585.1z"/>
<path class="st6" d="M591.1,245h6l0,0H591.1z"/>
<path class="st6" d="M597,245h6v-0.6h-6V245z"/>
<path class="st6" d="M603,245h6l0,0H603z"/>
<path class="st6" d="M609,245h6l0,0H609z"/>
<path class="st6" d="M614.9,245h6v-1.3h-6V245z"/>
<path class="st6" d="M620.9,245h6l0,0H620.9z"/>
<path class="st6" d="M626.8,245h6v-1.3h-6V245z"/>
<path class="st6" d="M632.8,245h6l0,0H632.8z"/>
<path class="st6" d="M638.8,245h6l0,0H638.8z"/>
<path class="st6" d="M644.7,245h6l0,0H644.7z"/>
<path class="st6" d="M650.7,245h6l0,0H650.7z"/>
<path class="st6" d="M656.6,245h6v-1.3h-6V245z"/>
<path class="st6" d="M662.6,245h6l0,0H662.6z"/>
<path class="st6" d="M668.6,245h6l0,0H668.6z"/>
<path class="st6" d="M674.5,245h6l0,0H674.5z"/>
<path class="st6" d="M680.5,245h6l0,0H680.5z"/>
<path class="st6" d="M686.4,245h6l0,0H686.4z"/>
<path class="st6" d="M692.4,245h6v-0.6h-6V245z"/>
<path class="st6" d="M698.4,245h6l0,0H698.4z"/>
<path class="st6" d="M704.3,245h6l0,0H704.3z"/>
<path class="st6" d="M710.3,245h6l0,0H710.3z"/>
<path class="st6" d="M716.2,245h6v-0.6h-6V245z"/>
<path class="st6" d="M722.2,245h6v-0.6h-6V245z"/>
<path class="st6" d="M728.2,245h6v-0.6h-6V245z"/>
<path class="st6" d="M734.1,245h6l0,0H734.1z"/>
<path class="st6" d="M740.1,245h6l0,0H740.1z"/>
<path class="st6" d="M746.1,245h6l0,0H746.1z"/>
<path class="st6" d="M752,245h6l0,0H752z"/>
<path class="st6" d="M758,245h6l0,0H758z"/>
<path class="st6" d="M763.9,245h6l0,0H763.9z"/>
<path class="st6" d="M769.9,245h6v-0.6h-6V245z"/>
<path class="st6" d="M775.9,245h6l0,0H775.9z"/>
<path class="st6" d="M781.8,245h6l0,0H781.8z"/>
<path class="st6" d="M787.8,245h6l0,0H787.8z"/>
<path class="st6" d="M793.7,245h6v-0.6h-6V245z"/>
<path class="st6" d="M799.7,245h6l0,0H799.7z"/>
<path class="st6" d="M805.7,245h6l0,0H805.7z"/>
<path class="st6" d="M811.6,245h6l0,0H811.6z"/>
<path class="st6" d="M817.6,245h6l0,0H817.6z"/>
<path class="st6" d="M823.5,245h6l0,0H823.5z"/>
<path class="st6" d="M829.5,245h6l0,0H829.5z"/>
<path class="st6" d="M835.5,245h6l0,0H835.5z"/>
<path class="st6" d="M841.4,245h6v-0.6h-6V245z"/>
<path class="st6" d="M847.4,245h6l0,0H847.4z"/>
<path class="st6" d="M853.3,245h6l0,0H853.3z"/>
<path class="st6" d="M859.3,245h6v-0.6h-6V245z"/>
<path class="st6" d="M865.3,245h6l0,0H865.3z"/>
<path class="st6" d="M871.2,245h6l0,0H871.2z"/>
<path class="st6" d="M877.2,245h6l0,0H877.2z"/>
<path class="st6" d="M883.2,245h6l0,0H883.2z"/>
<path class="st6" d="M889.1,245h6l0,0H889.1z"/>
<path class="st6" d="M895.1,245h6l0,0H895.1z"/>
<path class="st6" d="M901,245h6l0,0H901z"/>
<path class="st6" d="M907,245h6l0,0H907z"/>
<path class="st6" d="M913,245h6l0,0H913z"/>
<path class="st6" d="M918.9,245h6l0,0H918.9z"/>
<path class="st6" d="M924.9,245h6v-0.6h-6V245z"/>
<path class="st6" d="M930.8,245h6l0,0H930.8z"/>
<path class="st6" d="M936.8,245h6l0,0H936.8z"/>
<path class="st6" d="M942.8,245h6l0,0H942.8z"/>
<path class="st6" d="M948.7,245h6l0,0H948.7z"/>
<path class="st6" d="M954.7,245h6l0,0H954.7z"/>
<path class="st6" d="M960.6,245h6l0,0H960.6z"/>
<path class="st6" d="M966.6,245h6l0,0H966.6z"/>
<path class="st6" d="M972.6,245h6l0,0H972.6z"/>
<path class="st6" d="M978.5,245h6l0,0H978.5z"/>
<path class="st6" d="M984.5,245h6l0,0H984.5z"/>
<path class="st6" d="M990.4,245h6l0,0H990.4z"/>
<path class="st6" d="M996.4,245h6v-0.6h-6V245z"/>
<path class="st6" d="M1002.4,245h6v-0.6h-6V245z"/>
<path class="st6" d="M1008.3,245h6v-0.6h-6V245z"/>
<path class="st6" d="M1014.3,245h6l0,0H1014.3z"/>
<path class="st6" d="M1020.2,245h6l0,0H1020.2z"/>
<path class="st6" d="M1026.2,245h6l0,0H1026.2z"/>
<path class="st6" d="M1032.2,245h6l0,0H1032.2z"/>
<path class="st6" d="M1038.1,245h6v-0.6h-6V245z"/>
<path class="st6" d="M1044.1,245h6v-0.6h-6V245z"/>
<path class="st7" d="M48.6,132.7h6V40.9h-6V132.7z"/>
<path class="st7" d="M54.6,230.3h6V185h-6V230.3z"/>
<path class="st7" d="M60.6,243.7h6v-44h-6V243.7z"/>
<path class="st7" d="M66.5,245h6v-28.7h-6V245z"/>
<path class="st7" d="M72.5,245h6v-21h-6V245z"/>
<path class="st7" d="M78.4,245h6v-16.6h-6V245z"/>
<path class="st7" d="M84.4,239.9h6v-6.4h-6V239.9z"/>
<path class="st7" d="M90.4,243.7h6v-9.6h-6V243.7z"/>
<path class="st7" d="M96.3,241.2h6v-6.4h-6V241.2z"/>
<path class="st7" d="M102.3,242.4h6v-6.4h-6V242.4z"/>
<path class="st7" d="M108.2,241.8h6v-5.1h-6V241.8z"/>
<path class="st7" d="M114.2,245h6v-7.7h-6V245z"/>
<path class="st7" d="M120.2,241.2h6v-3.8h-6V241.2z"/>
<path class="st7" d="M126.1,245h6v-7h-6V245z"/>
<path class="st7" d="M132.1,245h6v-6.4h-6V245z"/>
<path class="st7" d="M138,242.4h6v-3.8h-6V242.4z"/>
<path class="st7" d="M144,245h6v-5.7h-6V245z"/>
<path class="st7" d="M150,242.4h6v-3.2h-6V242.4z"/>
<path class="st7" d="M155.9,245h6v-5.7h-6V245z"/>
<path class="st7" d="M161.9,245h6v-5.1h-6V245z"/>
<path class="st7" d="M167.9,242.4h6v-2.6h-6V242.4z"/>
<path class="st7" d="M173.8,243.1h6v-2.6h-6V243.1z"/>
<path class="st7" d="M179.8,244.3h6v-3.8h-6V244.3z"/>
<path class="st7" d="M185.7,245h6l0,0H185.7z"/>
<path class="st7" d="M191.7,245h6l0,0H191.7z"/>
<path class="st7" d="M197.7,241.8h6v-1.3h-6V241.8z"/>
<path class="st7" d="M203.6,245h6v-3.8h-6V245z"/>
<path class="st7" d="M209.6,245h6v-3.8h-6V245z"/>
<path class="st7" d="M215.5,245h6l0,0H215.5z"/>
<path class="st7" d="M221.5,245h6v-3.8h-6V245z"/>
<path class="st7" d="M227.5,245h6v-3.8h-6V245z"/>
<path class="st7" d="M233.4,243.1h6v-1.9h-6V243.1z"/>
<path class="st7" d="M239.4,245h6l0,0H239.4z"/>
<path class="st7" d="M245.3,245h6v-3.8h-6V245z"/>
<path class="st7" d="M251.3,245h6l0,0H251.3z"/>
<path class="st7" d="M257.3,245h6v-3.8h-6V245z"/>
<path class="st7" d="M263.2,242.4h6v-1.3h-6V242.4z"/>
<path class="st7" d="M269.2,245h6l0,0H269.2z"/>
<path class="st7" d="M275.1,245h6v-3.2h-6V245z"/>
<path class="st7" d="M281.1,245h6v-3.2h-6V245z"/>
<path class="st7" d="M287.1,243.7h6v-1.9h-6V243.7z"/>
<path class="st7" d="M293,245h6v-3.2h-6V245z"/>
<path class="st7" d="M299,245h6v-3.2h-6V245z"/>
<path class="st7" d="M305,245h6v-3.2h-6V245z"/>
<path class="st7" d="M310.9,245h6v-3.2h-6V245z"/>
<path class="st7" d="M316.9,245h6v-3.2h-6V245z"/>
<path class="st7" d="M322.8,243.7h6v-1.9h-6V243.7z"/>
<path class="st7" d="M328.8,243.1h6v-1.3h-6V243.1z"/>
<path class="st7" d="M334.8,245h6v-2.6h-6V245z"/>
<path class="st7" d="M340.7,244.3h6v-1.9h-6V244.3z"/>
<path class="st7" d="M346.7,243.7h6v-1.3h-6V243.7z"/>
<path class="st7" d="M352.6,245h6v-2.6h-6V245z"/>
<path class="st7" d="M358.6,243.7h6v-1.3h-6V243.7z"/>
<path class="st7" d="M364.6,245h6v-2.6h-6V245z"/>
<path class="st7" d="M370.5,245h6v-2.6h-6V245z"/>
<path class="st7" d="M376.5,245h6l0,0H376.5z"/>
<path class="st7" d="M382.4,245h6v-2.6h-6V245z"/>
<path class="st7" d="M388.4,245h6v-2.6h-6V245z"/>
<path class="st7" d="M394.4,244.3h6v-1.9h-6V244.3z"/>
<path class="st7" d="M400.3,245h6v-1.9h-6V245z"/>
<path class="st7" d="M406.3,245h6v-1.9h-6V245z"/>
<path class="st7" d="M412.2,244.3h6v-1.3h-6V244.3z"/>
<path class="st7" d="M418.2,245h6v-1.9h-6V245z"/>
<path class="st7" d="M424.2,245h6l0,0H424.2z"/>
<path class="st7" d="M430.1,245h6v-1.9h-6V245z"/>
<path class="st7" d="M436.1,244.3h6v-1.3h-6V244.3z"/>
<path class="st7" d="M442,245h6v-1.9h-6V245z"/>
<path class="st7" d="M448,245h6l0,0H448z"/>
<path class="st7" d="M454,245h6v-1.9h-6V245z"/>
<path class="st7" d="M459.9,245h6l0,0H459.9z"/>
<path class="st7" d="M465.9,245h6v-1.9h-6V245z"/>
<path class="st7" d="M471.9,245h6v-1.9h-6V245z"/>
<path class="st7" d="M477.8,245h6v-1.9h-6V245z"/>
<path class="st7" d="M483.8,245h6l0,0H483.8z"/>
<path class="st7" d="M489.7,245h6v-1.9h-6V245z"/>
<path class="st7" d="M495.7,243.7h6v-0.6h-6V243.7z"/>
<path class="st7" d="M501.7,243.7h6v-0.6h-6V243.7z"/>
<path class="st7" d="M507.6,244.3h6v-0.6h-6V244.3z"/>
<path class="st7" d="M513.6,244.3h6v-0.6h-6V244.3z"/>
<path class="st7" d="M519.5,245h6v-1.3h-6V245z"/>
<path class="st7" d="M525.5,245h6l0,0H525.5z"/>
<path class="st7" d="M531.5,245h6v-1.3h-6V245z"/>
<path class="st7" d="M537.4,245h6l0,0H537.4z"/>
<path class="st7" d="M543.4,245h6v-1.3h-6V245z"/>
<path class="st7" d="M549.3,245h6v-1.3h-6V245z"/>
<path class="st7" d="M555.3,245h6v-1.3h-6V245z"/>
<path class="st7" d="M561.3,244.3h6v-0.6h-6V244.3z"/>
<path class="st7" d="M567.2,245h6v-1.3h-6V245z"/>
<path class="st7" d="M573.2,245h6v-1.3h-6V245z"/>
<path class="st7" d="M579.1,245h6v-1.3h-6V245z"/>
<path class="st7" d="M585.1,245h6v-1.3h-6V245z"/>
<path class="st7" d="M591.1,245h6v-1.3h-6V245z"/>
<path class="st7" d="M597,244.3h6v-0.6h-6V244.3z"/>
<path class="st7" d="M603,245h6v-1.3h-6V245z"/>
<path class="st7" d="M609,245h6v-1.3h-6V245z"/>
<path class="st7" d="M614.9,245h6l0,0H614.9z"/>
<path class="st7" d="M620.9,245h6v-1.3h-6V245z"/>
<path class="st7" d="M626.8,245h6l0,0H626.8z"/>
<path class="st7" d="M632.8,245h6v-1.3h-6V245z"/>
<path class="st7" d="M638.8,245h6v-1.3h-6V245z"/>
<path class="st7" d="M644.7,245h6v-1.3h-6V245z"/>
<path class="st7" d="M650.7,245h6v-1.3h-6V245z"/>
<path class="st7" d="M656.6,245h6l0,0H656.6z"/>
<path class="st7" d="M662.6,245h6v-0.6h-6V245z"/>
<path class="st7" d="M668.6,245h6v-0.6h-6V245z"/>
<path class="st7" d="M674.5,245h6v-0.6h-6V245z"/>
<path class="st7" d="M680.5,245h6v-0.6h-6V245z"/>
<path class="st7" d="M686.4,245h6v-0.6h-6V245z"/>
<path class="st7" d="M692.4,245h6l0,0H692.4z"/>
<path class="st7" d="M698.4,245h6v-0.6h-6V245z"/>
<path class="st7" d="M704.3,245h6v-0.6h-6V245z"/>
<path class="st7" d="M710.3,245h6v-0.6h-6V245z"/>
<path class="st7" d="M716.2,245h6l0,0H716.2z"/>
<path class="st7" d="M722.2,245h6l0,0H722.2z"/>
<path class="st7" d="M728.2,245h6l0,0H728.2z"/>
<path class="st7" d="M734.1,245h6v-0.6h-6V245z"/>
<path class="st7" d="M740.1,245h6v-0.6h-6V245z"/>
<path class="st7" d="M746.1,245h6v-0.6h-6V245z"/>
<path class="st7" d="M752,245h6v-0.6h-6V245z"/>
<path class="st7" d="M758,245h6v-0.6h-6V245z"/>
<path class="st7" d="M763.9,245h6v-0.6h-6V245z"/>
<path class="st7" d="M769.9,245h6l0,0H769.9z"/>
<path class="st7" d="M775.9,245h6v-0.6h-6V245z"/>
<path class="st7" d="M781.8,245h6v-0.6h-6V245z"/>
<path class="st7" d="M787.8,245h6v-0.6h-6V245z"/>
<path class="st7" d="M793.7,245h6l0,0H793.7z"/>
<path class="st7" d="M799.7,245h6v-0.6h-6V245z"/>
<path class="st7" d="M805.7,245h6v-0.6h-6V245z"/>
<path class="st7" d="M811.6,245h6v-0.6h-6V245z"/>
<path class="st7" d="M817.6,245h6v-0.6h-6V245z"/>
<path class="st7" d="M823.5,245h6v-0.6h-6V245z"/>
<path class="st7" d="M829.5,245h6v-0.6h-6V245z"/>
<path class="st7" d="M835.5,245h6v-0.6h-6V245z"/>
<path class="st7" d="M841.4,245h6l0,0H841.4z"/>
<path class="st7" d="M847.4,245h6v-0.6h-6V245z"/>
<path class="st7" d="M853.3,245h6v-0.6h-6V245z"/>
<path class="st7" d="M859.3,245h6l0,0H859.3z"/>
<path class="st7" d="M865.3,245h6v-0.6h-6V245z"/>
<path class="st7" d="M871.2,245h6v-0.6h-6V245z"/>
<path class="st7" d="M877.2,245h6v-0.6h-6V245z"/>
<path class="st7" d="M883.2,245h6v-0.6h-6V245z"/>
<path class="st7" d="M889.1,245h6v-0.6h-6V245z"/>
<path class="st7" d="M895.1,245h6v-0.6h-6V245z"/>
<path class="st7" d="M901,245h6v-0.6h-6V245z"/>
<path class="st7" d="M907,245h6v-0.6h-6V245z"/>
<path class="st7" d="M913,245h6v-0.6h-6V245z"/>
<path class="st7" d="M918.9,245h6v-0.6h-6V245z"/>
<path class="st7" d="M924.9,245h6l0,0H924.9z"/>
<path class="st7" d="M930.8,245h6v-0.6h-6V245z"/>
<path class="st7" d="M936.8,245h6v-0.6h-6V245z"/>
<path class="st7" d="M942.8,245h6v-0.6h-6V245z"/>
<path class="st7" d="M948.7,245h6v-0.6h-6V245z"/>
<path class="st7" d="M954.7,245h6v-0.6h-6V245z"/>
<path class="st7" d="M960.6,245h6v-0.6h-6V245z"/>
<path class="st7" d="M966.6,245h6v-0.6h-6V245z"/>
<path class="st7" d="M972.6,245h6v-0.6h-6V245z"/>
<path class="st7" d="M978.5,245h6v-0.6h-6V245z"/>
<path class="st7" d="M984.5,245h6v-0.6h-6V245z"/>
<path class="st7" d="M990.4,245h6v-0.6h-6V245z"/>
<path class="st7" d="M996.4,245h6l0,0H996.4z"/>
<path class="st7" d="M1002.4,245h6l0,0H1002.4z"/>
<path class="st7" d="M1008.3,245h6l0,0H1008.3z"/>
<path class="st7" d="M1014.3,245h6v-0.6h-6V245z"/>
<path class="st7" d="M1020.2,245h6v-0.6h-6V245z"/>
<path class="st7" d="M1026.2,245h6v-0.6h-6V245z"/>
<path class="st7" d="M1032.2,245h6v-0.6h-6V245z"/>
<path class="st7" d="M1038.1,245h6l0,0H1038.1z"/>
<path class="st7" d="M1044.1,245h6l0,0H1044.1z"/>
<path class="st8" d="M47.1,245h1004.4"/>
<path class="st8" d="M47.1,245V21.8"/>
<path class="st6" d="M93.5,68h20v-7h-20V68z"/>
<text transform="matrix(1 0 0 1 121.4942 67.9556)" class="st9 st2 st4">NapA</text>
<path class="st7" d="M93.5,82.1h20v-7h-20V82.1z"/>
<text transform="matrix(1 0 0 1 121.4942 82.101)" class="st9 st2 st4">cNarG</text>
</svg>
